<?xml version="1.0" standalone="no"?>
<!DOCTYPE svg PUBLIC "-//W3C//DTD SVG 20010904//EN"
 "http://www.w3.org/TR/2001/REC-SVG-20010904/DTD/svg10.dtd">
<svg version="1.0" xmlns="http://www.w3.org/2000/svg"
 width="1200.000000pt" height="1200.000000pt" viewBox="0 0 1200.000000 1200.000000"
 preserveAspectRatio="xMidYMid meet">

<g transform="translate(0.000000,1200.000000) scale(0.100000,-0.100000)"
fill="#000000" stroke="none">
<path d="M4394 6345 c-33 -6 -69 -15 -78 -18 -23 -9 -10 -27 20 -27 16 0 24
-6 24 -18 0 -10 -22 -135 -50 -277 -27 -143 -50 -268 -50 -277 0 -21 47 -32
81 -19 21 7 27 20 38 76 16 77 68 190 105 224 22 21 26 22 32 7 3 -9 -4 -68
-16 -132 -12 -64 -19 -127 -16 -140 8 -29 40 -48 70 -40 29 7 113 71 126 97
20 37 -1 42 -36 8 -29 -28 -34 -30 -40 -15 -7 17 -5 27 21 173 8 46 12 97 8
114 -7 35 -39 55 -76 45 -26 -6 -102 -79 -124 -118 -19 -34 -16 -10 17 157 17
83 30 160 30 173 0 25 0 25 -86 7z"/>
<path d="M6180 6330 c-22 -22 -27 -79 -8 -98 19 -19 66 -14 88 8 22 22 27 79
8 98 -19 19 -66 14 -88 -8z"/>
<path d="M7520 6330 c-22 -22 -27 -79 -8 -98 19 -19 66 -14 88 8 22 22 27 79
8 98 -19 19 -66 14 -88 -8z"/>
<path d="M3761 6260 c-12 -41 -22 -79 -22 -85 2 -22 23 -8 44 29 31 54 65 77
121 80 26 1 49 -1 51 -4 5 -8 -80 -449 -96 -497 -7 -23 -18 -33 -39 -38 -15
-3 -31 -13 -34 -21 -4 -12 16 -14 124 -14 104 0 130 3 130 14 0 8 -11 17 -25
20 -34 9 -33 26 23 306 l47 235 35 0 c71 1 110 -28 110 -83 0 -9 5 -24 10 -32
16 -26 27 1 34 85 l7 80 -249 0 -250 0 -21 -75z"/>
<path d="M5470 6312 c0 -14 8 -22 23 -24 20 -3 22 -8 19 -53 -2 -27 -22 -144
-45 -260 l-42 -210 -38 -18 c-20 -9 -37 -22 -37 -27 0 -16 325 -12 385 4 139
37 225 120 260 251 40 154 -5 273 -125 329 -39 18 -68 21 -222 24 -173 4 -178
3 -178 -16z m328 -48 c68 -50 90 -167 56 -297 -38 -147 -113 -217 -233 -217
-38 0 -53 4 -59 18 -9 17 66 440 89 499 9 24 13 25 65 21 33 -3 66 -13 82 -24z"/>
<path d="M6827 6210 c-30 -19 -47 -37 -47 -49 0 -34 -12 -51 -35 -51 -20 0
-55 -27 -55 -43 0 -4 16 -7 35 -7 19 0 35 -1 35 -2 0 -2 -11 -59 -25 -128 -32
-162 -32 -195 -1 -215 15 -10 33 -14 50 -9 37 9 126 91 126 116 0 18 -4 17
-36 -12 -54 -47 -59 -31 -34 96 33 168 27 154 71 154 27 0 41 5 48 19 14 25 5
31 -41 31 -33 0 -38 3 -34 18 3 9 8 38 12 65 8 57 -2 60 -69 17z"/>
<path d="M8177 6210 c-30 -19 -47 -37 -47 -49 0 -34 -12 -51 -35 -51 -20 0
-55 -27 -55 -43 0 -4 16 -7 35 -7 19 0 35 -1 35 -2 0 -2 -11 -59 -25 -128 -32
-162 -32 -195 -1 -215 15 -10 33 -14 50 -9 37 9 126 91 126 116 0 18 -4 17
-36 -12 -54 -47 -59 -31 -34 96 33 168 27 154 71 154 27 0 41 5 48 19 14 25 5
31 -41 31 -33 0 -38 3 -34 18 3 9 8 38 12 65 8 57 -2 60 -69 17z"/>
<path d="M4889 6111 c-85 -47 -160 -170 -160 -263 0 -95 32 -141 100 -141 65
0 200 98 173 125 -9 9 -18 6 -39 -14 -54 -51 -104 -43 -119 18 -10 38 0 49 55
63 56 14 123 55 147 90 23 32 20 89 -4 114 -29 29 -107 33 -153 8z m61 -53 c0
-39 -22 -80 -62 -113 -28 -23 -34 -25 -36 -11 -5 23 26 110 49 140 25 32 49
24 49 -16z"/>
<path d="M6145 6118 c-31 -17 -105 -91 -105 -105 0 -19 8 -16 42 12 55 47 59
31 28 -120 -27 -132 -26 -170 4 -190 15 -10 33 -14 50 -9 37 9 126 91 126 116
0 18 -4 17 -36 -12 -23 -20 -40 -28 -46 -22 -6 6 0 55 16 137 31 154 31 160 6
185 -22 22 -54 25 -85 8z"/>
<path d="M6455 6116 c-74 -33 -105 -116 -67 -178 12 -18 44 -55 71 -83 51 -49
62 -80 39 -103 -21 -21 -44 -13 -81 28 -38 43 -57 49 -81 24 -25 -24 -20 -61
11 -81 36 -24 126 -23 175 1 65 31 96 111 67 169 -6 12 -38 48 -71 79 -49 47
-59 61 -56 85 2 22 9 29 29 31 20 2 32 -5 53 -32 42 -55 96 -45 96 17 0 23 -7
31 -35 43 -43 17 -110 18 -150 0z"/>
<path d="M7085 6118 c-31 -17 -105 -91 -105 -105 0 -19 8 -16 42 12 58 49 60
32 20 -172 l-28 -141 32 -6 c59 -12 78 4 93 78 14 72 77 212 105 235 14 12 23
12 50 3 44 -16 53 -15 76 8 40 40 16 100 -40 100 -33 0 -80 -36 -122 -94 l-28
-39 6 45 c5 38 3 49 -15 67 -23 23 -55 27 -86 9z"/>
<path d="M7485 6118 c-31 -17 -105 -91 -105 -105 0 -19 8 -16 42 12 55 47 59
31 28 -120 -27 -132 -26 -170 4 -190 15 -10 33 -14 50 -9 37 9 126 91 126 116
0 18 -4 17 -36 -12 -23 -20 -40 -28 -46 -22 -6 6 0 55 16 137 31 154 31 160 6
185 -22 22 -54 25 -85 8z"/>
<path d="M7845 6114 c-91 -47 -167 -170 -168 -274 0 -70 19 -105 70 -127 33
-13 40 -13 81 2 49 19 138 98 128 114 -4 6 -24 -2 -50 -21 -59 -41 -90 -34
-107 22 -22 72 25 250 65 250 8 0 26 -16 41 -36 21 -27 33 -34 53 -32 31 3 54
42 46 75 -11 42 -101 57 -159 27z"/>
</g>
</svg>
